#!OML:ASF E:\emotionWalksFemale\Project 1\Capture day 1\Session 1\Female1.ASF
:FULLY-SPECIFIED
:DEGREES
929
root 10.5901 15.8217 -5.18969 178.414 -9.24961 -185.925
lowerback 4.82164 0.0930279 5.07385
upperback -7.41602 0.380652 3.27732
thorax -10.626 -0.288133 0.668236
lowerneck -13.7678 -1.16996 -1.07424
upperneck 24.5036 -2.04767 -1.40339
head 10.0643 -1.62777 -0.6441
rclavicle -3.97569e-015 1.74931e-014
rhumerus 35.5054 15.8153 -45.1657
rradius 26.1683
rwrist 21.4705
rhand -1.82652 -51.2215
rfingers 7.12502
rthumb 23.8398 -79.7622
lclavicle -3.97569e-015 1.74931e-014
lhumerus 26.3718 -18.0325 52.8877
lradius 28.2943
lwrist -21.7489
lhand -2.56643 -37.8481
lfingers 7.12502
lthumb 23.13 -9.21664
rfemur -1.71141 27.7516 19.7455
rtibia 22.8565
rfoot -20.0953 -42.6248
rtoes 19.7489
lfemur -4.33492 3.98996 -18.4835
ltibia 45.4261
lfoot -15.4171 4.44642
ltoes -26.0905
930
root 10.6075 15.8146 -5.28695 178.286 -9.54387 -186.121
lowerback 4.90016 0.0573248 4.91663
upperback -7.39443 0.330836 3.30326
thorax -10.6505 -0.295579 0.790432
lowerneck -13.98 -1.19971 -1.2179
upperneck 24.6229 -2.07348 -1.30058
head 10.1512 -1.64024 -0.591356
rclavicle 3.49861e-014 6.04305e-014
rhumerus 35.3654 16.6741 -44.005
rradius 26.8022
rwrist 20.1006
rhand -2.06478 -51.0703
rfingers 7.12502
rthumb 23.6113 -79.6406
lclavicle 3.49861e-014 6.04305e-014
lhumerus 26.2437 -18.3374 52.648
lradius 28.4893
lwrist -21.3429
lhand -2.75127 -37.7123
lfingers 7.12502
lthumb 22.9527 -9.05868
rfemur -1.08807 27.9109 20.0677
rtibia 23.1299
rfoot -20.8678 -43.0436
rtoes 20.1998
lfemur -4.85558 3.82289 -18.6876
ltibia 45.0698
lfoot -15.7389 5.25125
ltoes -22.8943
931
root 10.6235 15.8064 -5.37715 178.208 -9.88054 -186.386
lowerback 5.10688 0.0092208 4.68822
upperback -7.44356 0.265848 3.31506
thorax -10.8323 -0.308897 0.944064
lowerneck -14.1068 -1.19399 -1.54062
upperneck 24.78 -2.05818 -1.03096
head 10.2397 -1.63495 -0.444131
rclavicle -1.03368e-014 -1.00187e-013
rhumerus 35.7577 11.2674 -50.5863
rradius 24.069
rwrist 28.4442
rhand -1.99688 -49.5131
rfingers 7.12502
rthumb 23.6764 -78.075
lclavicle -1.03368e-014 -1.00187e-013
lhumerus 26.1696 -18.3738 52.7089
lradius 28.5589
lwrist -21.1767
lhand -2.47854 -37.6222
lfingers 7.12502
lthumb 23.2143 -9.00131
rfemur -0.583195 27.5666 20.1971
rtibia 23.3919
rfoot -21.2626 -43.0851
rtoes 20.5779
lfemur -5.45124 3.55807 -18.995
ltibia 44.6665
lfoot -16.2361 6.1951
ltoes -20.0516
932
root 10.6332 15.8042 -5.46841 178.221 -10.0935 -186.595
lowerback 5.10796 -0.0020353 4.62514
upperback -7.54924 0.238881 3.27805
thorax -10.9524 -0.323833 0.947476
lowerneck -14.4324 -1.31393 -1.82873
upperneck 25.3387 -2.23953 -0.870469
head 10.5133 -1.74852 -0.377274
rclavicle -1.35174e-014 -2.06736e-014
rhumerus 35.6754 13.5672 -48.0456
rradius 25.0581
rwrist 25.203
rhand -1.87619 -50.0324
rfingers 7.12502
rthumb 23.7921 -78.5792
lclavicle -1.35174e-014 -2.06736e-014
lhumerus 26.0432 -18.1737 53.0121
lradius 28.4504
lwrist -21.2191
lhand -2.00697 -37.894
lfingers 7.12502
lthumb 23.6667 -9.33082
rfemur -0.238188 27.0248 20.2297
rtibia 23.5752
rfoot -21.2626 -42.916
rtoes 20.4836
lfemur -6.12364 3.4074 -19.2593
ltibia 44.2671
lfoot -16.6633 7.21285
ltoes -17.6973
933
root 10.6417 15.8011 -5.56173 178.177 -10.2299 -186.627
lowerback 4.76513 0.0359281 4.73381
upperback -7.45018 0.273465 3.26671
thorax -10.6316 -0.31051 0.860637
lowerneck -14.4176 -1.36335 -2.11157
upperneck 25.3628 -2.32782 -0.539793
head 10.5278 -1.77664 -0.223527
rclavicle 5.56597e-015 1.00187e-013
rhumerus 35.7519 14.9071 -46.2053
rradius 25.6803
rwrist 22.9525
rhand -1.86106 -49.8352
rfingers 7.12502
rthumb 23.8066 -78.3802
lclavicle 5.56597e-015 1.00187e-013
lhumerus 26.0636 -18.387 52.8296
lradius 28.7324
lwrist -20.6968
lhand -1.93798 -38.0567
lfingers 7.12502
lthumb 23.7329 -9.5021
rfemur 0.210481 26.6323 20.4996
rtibia 23.6577
rfoot -21.2532 -42.7833
rtoes 20.3088
lfemur -6.76868 3.2536 -19.3592
ltibia 43.9112
lfoot -17.0133 8.29059
ltoes -19.9009
934
root 10.6512 15.7925 -5.65006 178.002 -10.4214 -186.518
lowerback 4.25473 0.0413612 4.91487
upperback -7.04157 0.272059 3.31968
thorax -9.86712 -0.297129 0.793702
lowerneck -14.6487 -1.42858 -1.93431
upperneck 25.1417 -2.3597 -0.737989
head 10.4871 -1.77701 -0.325268
rclavicle -4.77083e-015 -6.04305e-014
rhumerus 36.1059 16.2317 -43.7737
rradius 26.503
rwrist 20.3396
rhand -2.10769 -49.6884
rfingers 7.12502
rthumb 23.5701 -78.264
lclavicle -4.77083e-015 -6.04305e-014
lhumerus 26.5468 -18.3051 52.5181
lradius 29.0263
lwrist -20.1815
lhand -1.91574 -37.864
lfingers 7.12502
lthumb 23.7542 -9.31219
rfemur 0.847019 26.451 21.027
rtibia 23.6305
rfoot -21.3375 -42.8567
rtoes 20.2426
lfemur -7.39849 2.94907 -19.2995
ltibia 43.6101
lfoot -17.2196 9.22936
ltoes -23.5007
935
root 10.6589 15.7852 -5.73712 177.882 -10.593 -186.57
lowerback 5.02842 0.0583289 5.00527
upperback -7.51297 0.350673 3.27458
thorax -10.862 -0.299954 0.713595
lowerneck -14.1865 -1.51895 -1.64605
upperneck 25.5431 -2.53117 -1.25335
head 10.5339 -1.93127 -0.58568
rclavicle 3.49861e-014 -5.88403e-014
rhumerus 35.5847 15.0894 -46.0165
rradius 25.7745
rwrist 23.17
rhand -1.77331 -49.1107
rfingers 7.12502
rthumb 23.8908 -77.6447
lclavicle 3.49861e-014 -5.88403e-014
lhumerus 25.9309 -18.6191 52.8824
lradius 29.0928
lwrist -20.2362
lhand -1.74161 -37.8319
lfingers 7.12502
lthumb 23.9212 -9.30189
rfemur 1.45736 26.2523 21.3136
rtibia 23.4895
rfoot -21.3178 -42.9494
rtoes 20.0791
lfemur -8.06721 2.58796 -19.4203
ltibia 43.331
lfoot -17.527 9.80877
ltoes -24.1049
936
root 10.6673 15.7789 -5.82312 177.755 -10.6937 -186.542
lowerback 5.65295 0.0730053 5.08872
upperback -7.91226 0.415362 3.30148
thorax -11.6978 -0.304594 0.713116
lowerneck -13.1946 -1.42642 -1.66835
upperneck 25.425 -2.50051 -1.16939
head 10.2986 -1.9352 -0.535064
rclavicle -1.51076e-014 5.725e-014
rhumerus 35.1553 12.7916 -49.5233
rradius 24.9332
rwrist 27.4668
rhand -1.56618 -48.8047
rfingers 7.12502
rthumb 24.0894 -77.3126
lclavicle -1.51076e-014 5.725e-014
lhumerus 25.4099 -18.8569 53.2524
lradius 29.0023
lwrist -20.4454
lhand -1.94639 -38.0908
lfingers 7.12502
lthumb 23.7248 -9.53516
rfemur 2.04286 25.9922 21.6573
rtibia 23.3023
rfoot -21.1389 -42.982
rtoes 19.8084
lfemur -8.69251 2.27019 -19.4435
ltibia 43.0362
lfoot -18.1045 10.1124
ltoes -24.3752
937
root 10.6769 15.7717 -5.90708 177.535 -10.6741 -186.257
lowerback 6.13715 0.073716 5.23093
upperback -8.10862 0.470903 3.51967
thorax -12.2252 -0.300767 0.881045
lowerneck -13.2455 -1.4309 -1.77625
upperneck 25.9571 -2.54648 -1.18699
head 10.505 -2.0007 -0.543125
rclavicle -2.22639e-014 6.36111e-015
rhumerus 34.9037 10.6049 -52.5201
rradius 24.8274
rwrist 31.1105
rhand -1.73232 -49.5618
rfingers 7.12502
rthumb 23.9301 -78.0906
lclavicle -2.22639e-014 6.36111e-015
lhumerus 25.1255 -18.7141 53.7284
lradius 28.7615
lwrist -20.7174
lhand -2.24043 -38.2688
lfingers 7.12502
lthumb 23.4428 -9.67684
rfemur 2.66478 25.9163 22.3432
rtibia 23.1584
rfoot -21.0398 -43.0739
rtoes 19.7006
lfemur -9.23941 2.0265 -19.1324
ltibia 42.6815
lfoot -18.691 10.1204
ltoes -23.9165
938
root 10.6838 15.7645 -5.99256 177.401 -10.5883 -186.11
lowerback 6.31786 0.103166 5.28739
upperback -8.16565 0.533497 3.65026
thorax -12.4041 -0.277702 0.988837
lowerneck -13.5185 -1.32953 -1.99881
upperneck 26.5694 -2.47747 -0.901687
head 10.7925 -1.98379 -0.412405
rclavicle 3.97569e-015 1.08139e-013
rhumerus 34.8003 9.7104 -53.8006
rradius 24.8428
rwrist 32.6254
rhand -1.86365 -50.017
rfingers 7.12502
rthumb 23.8042 -78.5623
lclavicle 3.97569e-015 1.08139e-013
lhumerus 25.004 -18.7108 53.8631
lradius 28.8213
lwrist -20.6259
lhand -2.18723 -38.0813
lfingers 7.12502
lthumb 23.4938 -9.49589
rfemur 3.21273 25.7375 22.794
rtibia 23.0269
rfoot -21.0451 -42.9579
rtoes 19.9147
lfemur -9.80785 1.76313 -18.9706
ltibia 42.2607
lfoot -19.0942 10.0318
ltoes -21.6633
939
root 10.6879 15.7588 -6.07523 177.351 -10.4966 -186.108
lowerback 6.45848 0.177486 5.38338
upperback -8.28244 0.649637 3.61391
thorax -12.6238 -0.242083 0.884061
lowerneck -13.4252 -1.20675 -2.19346
upperneck 27.0364 -2.4113 -0.597733
head 10.955 -1.9674 -0.271423
rclavicle -2.54444e-014 9.85972e-014
rhumerus 34.6263 9.20698 -54.6473
rradius 24.5526
rwrist 33.5795
rhand -1.6315 -49.4451
rfingers 7.12502
rthumb 24.0268 -77.9612
lclavicle -2.54444e-014 9.85972e-014
lhumerus 24.8716 -19.0848 53.7354
lradius 29.024
lwrist -20.4167
lhand -2.30724 -37.8245
lfingers 7.12502
lthumb 23.3787 -9.2244
rfemur 3.6431 25.4658 22.9943
rtibia 22.9101
rfoot -20.8435 -42.7817
rtoes 19.8174
lfemur -10.3913 1.38326 -19.0117
ltibia 41.7819
lfoot -19.2721 10.1813
ltoes -20.3023
940
root 10.6923 15.753 -6.15423 177.211 -10.436 -186.022
lowerback 6.78952 0.25379 5.53974
upperback -8.40203 0.797417 3.62321
thorax -12.9664 -0.197007 0.792525
lowerneck -13.2112 -1.27397 -2.20215
upperneck 27.3759 -2.51973 -0.838733
head 11.0384 -2.07938 -0.378716
rclavicle 2.14687e-014 -1.1291e-013
rhumerus 34.4853 9.00667 -55.0668
rradius 24.4358
rwrist 33.9858
rhand -1.4606 -49.147
rfingers 7.12502
rthumb 24.1907 -77.6414
lclavicle 2.14687e-014 -1.1291e-013
lhumerus 24.8567 -19.2999 53.8247
lradius 28.966
lwrist -20.5268
lhand -2.55712 -37.9809
lfingers 7.12502
lthumb 23.1389 -9.35047
rfemur 4.11483 25.3157 23.3579
rtibia 22.8814
rfoot -20.4018 -42.83
rtoes 19.2513
lfemur -10.8807 0.893022 -18.9697
ltibia 41.2566
lfoot -19.4377 10.2748
ltoes -19.8249
941
root 10.6962 15.745 -6.23352 177.035 -10.4408 -185.993
lowerback 7.00324 0.26522 5.50713
upperback -8.37365 0.837197 3.72412
thorax -13.0684 -0.16968 0.916456
lowerneck -13.0606 -1.22891 -1.97721
upperneck 27.393 -2.42186 -1.22632
head 11.0056 -2.06661 -0.543505
rclavicle -3.02153e-014 6.36111e-014
rhumerus 34.5878 9.38561 -54.6964
rradius 24.5698
rwrist 33.3988
rhand -1.49557 -49.4091
rfingers 7.12502
rthumb 24.1571 -77.908
lclavicle -3.02153e-014 6.36111e-014
lhumerus 24.8954 -19.3889 53.8066
lradius 29.0144
lwrist -20.3939
lhand -2.54936 -38.342
lfingers 7.12502
lthumb 23.1464 -9.71258
rfemur 4.65565 25.2164 23.7094
rtibia 22.8812
rfoot -20.3647 -42.8937
rtoes 19.7907
lfemur -11.3187 0.394049 -18.9808
ltibia 40.7174
lfoot -19.6086 10.432
ltoes -21.42
942
root 10.6967 15.735 -6.3114 176.912 -10.4268 -186.013
lowerback 7.05663 0.234017 5.43795
upperback -8.33055 0.79787 3.82476
thorax -13.0549 -0.175095 1.072
lowerneck -13.5338 -1.15455 -1.54953
upperneck 28.0763 -2.27828 -1.9224
head 11.3455 -2.07521 -0.876628
rclavicle 2.3059e-014 -2.54444e-014
rhumerus 34.818 9.81633 -54.4154
rradius 24.7336
rwrist 32.8392
rhand -1.30484 -49.532
rfingers 7.12502
rthumb 24.34 -78.0065
lclavicle 2.3059e-014 -2.54444e-014
lhumerus 24.8035 -19.4726 53.6936
lradius 29.1059
lwrist -20.0706
lhand -2.55705 -38.3703
lfingers 7.12502
lthumb 23.139 -9.73995
rfemur 5.1747 25.1067 23.9513
rtibia 22.8113
rfoot -20.505 -42.8627
rtoes 20.3786
lfemur -11.7747 -0.0630668 -19.0537
ltibia 40.1797
lfoot -19.7748 10.6937
ltoes -25.1253
